<svg width="512" height="512" viewBox="0 0 512 512" fill="none" xmlns="http://www.w3.org/2000/svg">
<path d="M256 413.153C342.464 413.153 412.808 342.809 412.808 256.345C412.808 169.881 342.464 99.539 256 99.539C169.536 99.539 99.192 169.882 99.192 256.346C99.192 342.81 169.536 413.153 256 413.153ZM180.551 376.362V322.705C180.551 302.808 194.374 286.088 212.919 281.619L202.619 322.817C201.221 328.411 202.98 334.32 207.211 338.237C210.176 340.983 214.023 342.444 217.943 342.444C218.377 342.444 218.812 342.424 219.247 342.388L242.455 381.069C245.336 385.871 250.399 388.738 255.999 388.738C261.599 388.738 266.662 385.871 269.543 381.07L292.751 342.389C293.186 342.425 293.621 342.445 294.055 342.445C297.975 342.445 301.823 340.984 304.787 338.238C309.018 334.321 310.777 328.412 309.379 322.818L299.079 281.62C317.624 286.09 331.447 302.809 331.447 322.706V376.363C309.581 390.158 283.708 398.154 255.998 398.154C228.291 398.153 202.417 390.157 180.551 376.362V376.362ZM205.436 181.692V173.397C205.436 159.237 216.956 147.718 231.115 147.718H280.885C295.045 147.718 306.564 159.238 306.564 173.397V181.692C306.564 182.131 306.207 182.487 305.769 182.487H206.231C205.792 182.487 205.436 182.13 205.436 181.692V181.692ZM213.731 197.487H298.269V223.167C298.269 234.591 293.783 245.295 285.636 253.306C277.492 261.315 266.737 265.622 255.274 265.43C232.367 265.048 213.731 245.721 213.731 222.348V197.487ZM291.632 326.677L267.687 318.695L286.015 291.202L294.828 326.454C294.862 326.591 294.942 326.911 294.597 327.23C294.251 327.55 293.939 327.444 293.805 327.401L291.677 326.692C291.662 326.686 291.647 326.682 291.632 326.677ZM220.326 326.69L218.195 327.401C218.06 327.444 217.749 327.55 217.403 327.23C217.058 326.91 217.138 326.59 217.172 326.454L225.985 291.202L244.313 318.695L220.359 326.68C220.348 326.683 220.337 326.686 220.326 326.69ZM256 309.184L236.834 280.436H275.165L256 309.184ZM256 330.61L277.938 337.923L256.682 373.351C256.613 373.466 256.451 373.737 256 373.737C255.55 373.737 255.388 373.466 255.318 373.351L234.062 337.924L256 330.61ZM256 114.539C334.193 114.539 397.808 178.153 397.808 256.346C397.808 300.19 377.805 339.447 346.449 365.479V322.705C346.449 292.874 323.519 268.31 294.361 265.681C294.967 265.133 295.568 264.577 296.154 264C307.191 253.146 313.269 238.644 313.269 223.166V195.588C318.204 192.914 321.564 187.688 321.564 181.691V173.396C321.564 150.965 303.315 132.717 280.885 132.717H231.115C208.684 132.717 190.436 150.965 190.436 173.396V181.691C190.436 187.688 193.796 192.914 198.731 195.588V222.347C198.731 239.472 206.201 254.975 217.996 265.654C188.669 268.114 165.551 292.753 165.551 322.705V365.479C134.195 339.447 114.192 300.189 114.192 256.346C114.192 178.153 177.807 114.539 256 114.539Z" fill="#616161"/>
<path d="M121.647 132.624C118.488 129.944 113.756 130.333 111.076 133.49C82.017 167.737 66.013 211.368 66.013 256.345C66.013 361.104 151.241 446.332 256 446.332C360.759 446.332 445.987 361.105 445.987 256.345C445.987 151.585 360.759 66.359 256 66.359C211.028 66.359 167.402 82.358 133.158 111.411C129.999 114.091 129.611 118.824 132.291 121.982C134.971 125.14 139.704 125.529 142.862 122.849C174.399 96.094 214.579 81.359 256 81.359C352.488 81.359 430.987 159.858 430.987 256.346C430.987 352.834 352.488 431.332 256 431.332C159.512 431.332 81.013 352.834 81.013 256.346C81.013 214.919 95.751 174.734 122.514 143.196C125.193 140.037 124.806 135.304 121.647 132.624V132.624Z" fill="#616161"/>
<path d="M498.159 206.177L472.801 203.016C472.477 202.976 472.216 202.742 472.136 202.42C466.765 180.819 458.192 160.203 446.656 141.147C446.482 140.859 446.5 140.506 446.7 140.249L462.462 119.999C467.347 113.725 466.79 104.752 461.167 99.129L412.873 50.835C407.249 45.211 398.277 44.654 392.003 49.539L371.651 65.379C371.394 65.579 371.041 65.598 370.754 65.424C351.727 53.966 331.157 45.457 309.615 40.134C309.292 40.054 309.057 39.793 309.017 39.469L305.823 13.842C304.839 5.951 298.101 0 290.149 0H221.85C213.898 0 207.16 5.951 206.177 13.841L202.983 39.468C202.943 39.792 202.708 40.053 202.385 40.133C180.843 45.456 160.273 53.965 141.246 65.423C140.959 65.596 140.606 65.578 140.349 65.378L119.997 49.538C113.723 44.654 104.751 45.21 99.127 50.834L50.833 99.128C45.21 104.751 44.654 113.723 49.538 119.997L65.299 140.248C65.5 140.506 65.518 140.859 65.344 141.146C53.807 160.203 45.234 180.819 39.863 202.42C39.783 202.742 39.523 202.975 39.199 203.016L13.841 206.177C5.951 207.161 0 213.899 0 221.851V290.149C0 298.101 5.951 304.839 13.841 305.822L39.025 308.961C39.349 309.001 39.61 309.236 39.69 309.56C45.012 331.27 53.565 351.994 65.112 371.157C65.284 371.443 65.266 371.794 65.066 372.052L49.538 392.002C44.654 398.276 45.211 407.249 50.833 412.872L99.127 461.166C104.75 466.79 113.723 467.346 119.997 462.461L139.848 447.011C140.106 446.81 140.459 446.793 140.745 446.966C159.937 458.592 180.706 467.21 202.475 472.58C202.797 472.66 203.031 472.92 203.071 473.244L206.176 498.158C207.159 506.049 213.898 511.999 221.85 511.999H290.148C298.1 511.999 304.838 506.048 305.822 498.158L308.927 473.244C308.968 472.92 309.201 472.66 309.524 472.58C315.933 470.999 322.339 469.11 328.566 466.966C332.483 465.618 334.565 461.35 333.216 457.433C331.868 453.517 327.601 451.435 323.683 452.783C317.878 454.782 311.905 456.542 305.931 458.016C299.623 459.572 294.845 464.946 294.042 471.388L290.937 496.302C290.887 496.7 290.548 496.999 290.148 496.999H221.85C221.45 496.999 221.111 496.7 221.061 496.302L217.956 471.388C217.153 464.946 212.375 459.572 206.067 458.016C185.772 453.01 166.41 444.976 148.516 434.136C142.95 430.764 135.763 431.181 130.634 435.174L110.783 450.624C110.469 450.871 110.016 450.842 109.733 450.559L61.44 402.267C61.157 401.984 61.129 401.532 61.375 401.216L76.903 381.266C80.886 376.149 81.31 368.974 77.959 363.416C67.193 345.551 59.219 326.23 54.258 305.991C52.709 299.67 47.332 294.883 40.88 294.079L15.697 290.94C15.299 290.89 15 290.551 15 290.151V221.853C15 221.453 15.299 221.114 15.697 221.064L41.056 217.903C47.486 217.101 52.857 212.334 54.421 206.041C59.428 185.903 67.42 166.684 78.177 148.916C81.546 143.35 81.129 136.165 77.137 131.037L61.375 110.786C61.129 110.47 61.158 110.019 61.44 109.736L109.734 61.442C110.016 61.159 110.468 61.132 110.784 61.377L131.136 77.217C136.251 81.199 143.424 81.624 148.984 78.275C166.723 67.592 185.901 59.66 205.983 54.697C212.289 53.138 217.065 47.765 217.867 41.325L221.061 15.698C221.111 15.3 221.45 15.001 221.85 15.001H290.149C290.549 15.001 290.888 15.3 290.938 15.698L294.132 41.325C294.935 47.765 299.711 53.138 306.016 54.697C326.098 59.659 345.276 67.592 363.015 78.275C368.576 81.624 375.749 81.198 380.863 77.217L401.215 61.376C401.532 61.13 401.983 61.161 402.265 61.442L450.559 109.736C450.842 110.019 450.871 110.47 450.624 110.787L434.861 131.039C430.871 136.167 430.454 143.352 433.823 148.917C444.579 166.684 452.572 185.904 457.578 206.041C459.143 212.334 464.514 217.102 470.944 217.903L496.302 221.064C496.699 221.114 496.999 221.453 496.999 221.853V290.151C496.999 290.551 496.7 290.89 496.302 290.94L471.119 294.079C464.667 294.883 459.29 299.67 457.741 305.991C452.78 326.23 444.805 345.551 434.039 363.416C430.688 368.976 431.113 376.15 435.096 381.266L450.624 401.217C450.87 401.533 450.842 401.985 450.559 402.267L402.265 450.561C401.982 450.844 401.531 450.873 401.215 450.626L381.364 435.175C376.235 431.184 369.049 430.767 363.482 434.138C359.204 436.729 354.778 439.195 350.329 441.465C346.639 443.348 345.175 447.865 347.057 451.555C348.939 455.244 353.456 456.707 357.147 454.826C361.919 452.391 366.666 449.746 371.254 446.968C371.541 446.794 371.894 446.813 372.151 447.012L392.001 462.462C398.276 467.348 407.248 466.791 412.871 461.167L461.166 412.873C466.788 407.25 467.345 398.278 462.461 392.003L446.933 372.053C446.733 371.795 446.715 371.444 446.887 371.157C458.435 351.994 466.988 331.27 472.309 309.561C472.389 309.238 472.649 309.003 472.974 308.962L498.157 305.823C506.048 304.84 511.998 298.101 511.998 290.15V221.852C512 213.899 506.049 207.161 498.159 206.177V206.177Z" fill="#616161"/>
</svg>
