<svg height="512" viewBox="0 0 512 512" width="512" xmlns="http://www.w3.org/2000/svg"><g id="filled_outline" data-name="filled outline"><g fill="#ea9d2d"><path d="m296 341.859 147.7 73.853a60 60 0 0 1 32.612 45.488l3.688 26.8h-448l3.688-26.8a60 60 0 0 1 32.612-45.488l147.7-73.853z"/><path d="m68.29 415.71 11.71-5.85v78.14h-48l3.69-26.8a60.034 60.034 0 0 1 32.6-45.49z"/><path d="m480 488h-48v-78.14l11.71 5.85a60.034 60.034 0 0 1 32.6 45.49z"/><path d="m358.2 372.96-102.2 83.04-102.2-83.04 34.42-17.21 27.78-13.89h80l32.42 16.21z"/></g><path d="m312 349.859-16-8v-32h-80v32l-16 8 56 24z" fill="#f6bb92"/><path d="m296 309.86v11.64c-.08.06-.17.11-.25.17a70.9 70.9 0 0 1 -79.75-.17v-11.64z" fill="#f6bb92"/><path d="m296 309.86v11.64c-.08.06-.17.11-.25.17a70.9 70.9 0 0 1 -79.75-.17v-11.64z" fill="#e6af89"/><path d="m80 409.86v78.14h-48l3.69-26.8a60.034 60.034 0 0 1 32.6-45.49z" fill="#cbcbcb"/><path d="m480 488h-48v-78.14l11.71 5.85a60.034 60.034 0 0 1 32.6 45.49z" fill="#cbcbcb"/><path d="m256 325.859a70.9 70.9 0 0 1 -65.827-44.566 198.16 198.16 0 0 1 -14.173-73.593v-63.7a80 80 0 0 1 80-80 80 80 0 0 1 80 80v63.7a198.16 198.16 0 0 1 -14.173 73.6 70.9 70.9 0 0 1 -65.827 44.559z" fill="#f6bb92"/><path d="m304 184h-24a8 8 0 0 1 0-16h24a8 8 0 0 1 0 16z" fill="#683b0d"/><circle cx="290" cy="199.859" fill="#683b0d" r="10"/><path d="m232 184h-24a8 8 0 0 1 0-16h24a8 8 0 0 1 0 16z" fill="#683b0d"/><circle cx="222" cy="199.859" fill="#683b0d" r="10"/><path d="m264 248h-16a8 8 0 0 1 -8-8v-13.859a8 8 0 1 1 16 0v5.859h8a8 8 0 0 1 0 16z" fill="#e6af89"/><path d="m179 173.859h-14.056a20.944 20.944 0 0 0 -20.944 20.941v14.111a20.948 20.948 0 0 0 2.211 9.367 20.945 20.945 0 0 0 18.733 11.577h15.056z" fill="#f6bb92"/><path d="m333 173.859h14.056a20.944 20.944 0 0 1 20.944 20.941v14.111a20.948 20.948 0 0 1 -2.211 9.367 20.945 20.945 0 0 1 -18.733 11.577h-15.056z" fill="#f6bb92"/><path d="m248 240h16a32 32 0 0 1 32 32 0 0 0 0 1 0 0h-80a0 0 0 0 1 0 0 32 32 0 0 1 32-32z" fill="#683b0d"/><path d="m336 184-1-4.017a74.61 74.61 0 0 0 -31-43.983l-.2.079a224.666 224.666 0 0 1 -82.67 16.068l-34.175.117a43.2 43.2 0 0 1 -38.778-23.83l-.778-1.55a42.472 42.472 0 0 1 3.492-43.855l.574-.8a82.325 82.325 0 0 1 66.875-34.247c9.23.006 18.882.01 27.737.012a81.947 81.947 0 0 1 57.923 24.006l3.238-.009a33.435 33.435 0 0 1 30 18.482l.3.611a87.214 87.214 0 0 1 6.635 60.248c-4.059 16.211-8.173 32.668-8.173 32.668z" fill="#683b0d"/><path d="m224 392 32 24 32-24-32-18.141z" fill="#cbcbcb"/><path d="m358.2 372.96-102.2 83.04-102.2-83.04 34.42-17.21 67.78 60.25 72.42-57.93z" fill="#c38325"/><path d="m208 336 48 37.859-64 50.141-8-66.141z" fill="#eaeae8"/><path d="m304 336-48 37.859 64 50.141 8-66.141z" fill="#eaeae8"/><path d="m280 184h24a8 8 0 0 0 0-16h-24a8 8 0 0 0 0 16z"/><circle cx="290" cy="199.859" r="10"/><path d="m232 184a8 8 0 0 0 0-16h-24a8 8 0 0 0 0 16z"/><circle cx="222" cy="199.859" r="10"/><path d="m32 496h448a8 8 0 0 0 7.926-9.091l-3.689-26.8a67.968 67.968 0 0 0 -36.954-51.551l-114.715-57.358-23.181-21.113a7.973 7.973 0 0 0 -5.387-2.079v-10.348a78.852 78.852 0 0 0 25.255-33.4 205.517 205.517 0 0 0 12.534-46.4h5.267a28.784 28.784 0 0 0 25.888-16 29.092 29.092 0 0 0 3.056-12.945v-14.115a28.978 28.978 0 0 0 -27.229-28.889c1.008-4.024 2.088-8.338 3.166-12.639a95.34 95.34 0 0 0 -7.237-65.772l-.3-.606a41.187 41.187 0 0 0 -37.055-22.9h-.12a89.32 89.32 0 0 0 -61.138-24c-8.853 0-18.506-.006-27.734-.012h-.056a90.543 90.543 0 0 0 -73.321 37.582l-.569.79a50.331 50.331 0 0 0 -4.15 52.113l.778 1.554a50.933 50.933 0 0 0 26.965 24.711v9.127h-3.056a28.977 28.977 0 0 0 -28.944 28.941v14.111a29.092 29.092 0 0 0 3.056 12.944 28.784 28.784 0 0 0 25.888 16h5.267a205.525 205.525 0 0 0 12.534 46.406 78.849 78.849 0 0 0 25.255 33.399v10.348a7.973 7.973 0 0 0 -5.387 2.078l-23.18 21.114-114.716 57.357a67.971 67.971 0 0 0 -36.955 51.551l-3.688 26.8a8 8 0 0 0 7.926 9.092zm312-288.3v-22.716l.782-3.125h2.274a12.959 12.959 0 0 1 12.944 12.941v14.111a13.017 13.017 0 0 1 -1.366 5.788 12.875 12.875 0 0 1 -11.578 7.156h-3.543q.48-7.044.487-14.155zm96 215.1.127.063a51.977 51.977 0 0 1 28.26 39.423l2.437 17.714h-30.824zm-105.421-52.71 8.955 4.477-10.534 8.561zm-15.017-9.09-5.8 47.955-44.817-35.112 34.683-27.356zm-31.524-22.6-32.038 25.271-32-25.24v-11.286a79.616 79.616 0 0 0 64 0v10.5c0 .255.015.507.038.755zm-32.038 45.622 13.725 10.753-13.454 10.763-12.992-11.549zm-5.315 37.957a8 8 0 0 0 10.313.268l21.667-17.334 11.976 9.383-38.641 31.396-38.641-31.4 13.119-10.278zm-85.741-200.12a12.875 12.875 0 0 1 -11.578-7.156 13.017 13.017 0 0 1 -1.366-5.788v-14.115a12.959 12.959 0 0 1 12.944-12.945h3.056v25.845q0 7.111.487 14.162zm-9.613-97.008-.778-1.554a34.365 34.365 0 0 1 2.822-35.58l.586-.815a74.494 74.494 0 0 1 60.327-30.92h.047c9.23.006 18.885.01 27.739.012a73.468 73.468 0 0 1 52.269 21.663 8 8 0 0 0 5.657 2.343h.021l3.239-.009h.075a25.285 25.285 0 0 1 22.748 14.065l.3.606a79.334 79.334 0 0 1 6.03 54.726c-.662 2.64-1.325 5.288-1.972 7.87a82.471 82.471 0 0 0 -26.007-27.914 8 8 0 0 0 -7.416-.769l-.19.076a215.742 215.742 0 0 1 -79.728 15.495l-34.177.118h-.139a34.995 34.995 0 0 1 -31.453-19.413zm42.269 153.471a189.337 189.337 0 0 1 -13.6-70.622v-47.518c.923.049 1.85.082 2.783.082h.2l34.175-.118a231.583 231.583 0 0 0 81.728-15.125 66.452 66.452 0 0 1 24.347 36.9l.766 3.063v22.716a189.328 189.328 0 0 1 -13.6 70.624 62.9 62.9 0 0 1 -116.8 0zm10.771 68.16 34.683 27.356-44.816 35.112-5.8-47.95zm-30.951 23.611 1.58 13.035-10.532-8.557zm-24.662 12.331 29 23.566 2.295 18.971a8 8 0 0 0 12.876 5.337l7.507-5.882 46.514 37.793a8 8 0 0 0 10.09 0l46.514-37.793 7.507 5.882a8 8 0 0 0 12.876-5.337l2.3-18.97 29-23.566 64.851 32.425a8.061 8.061 0 0 0 -.088 1.15v64h-336v-64a8.061 8.061 0 0 0 -.092-1.15zm-109.146 79.866a51.981 51.981 0 0 1 28.261-39.423l.127-.067v57.2h-30.824z"/><path d="m296 280a8 8 0 0 0 8-8 40.045 40.045 0 0 0 -40-40h-8v-5.859a8 8 0 1 0 -16 0v6.664a40.068 40.068 0 0 0 -32 39.195 8 8 0 0 0 8 8zm-48-32h16a24.042 24.042 0 0 1 22.629 16h-61.258a24.042 24.042 0 0 1 22.629-16z"/></g></svg>