<svg width="512" height="512" viewBox="0 0 512 512" fill="none" xmlns="http://www.w3.org/2000/svg">
<path d="M117.641 264.781C104.808 267.199 93.2226 274.026 84.8887 284.08C76.5548 294.135 71.9958 306.785 72 319.844V464C72.0085 472.484 75.3826 480.619 81.3819 486.618C87.3813 492.617 95.5157 495.992 104 496H152C152.571 495.999 153.141 495.938 153.7 495.82L239.72 477.09L358.75 495.9C359.163 495.969 359.581 496.002 360 496H408C416.484 495.992 424.619 492.617 430.618 486.618C436.617 480.619 439.992 472.484 440 464V319.844C440.003 306.783 435.443 294.132 427.108 284.076C418.773 274.02 407.187 267.193 394.352 264.773L312 249.359V216.918C319.581 209.501 325.607 200.647 329.728 190.874C333.849 181.102 335.981 170.606 336 160V159.992C344.487 159.992 352.626 156.621 358.627 150.619C364.629 144.618 368 136.479 368 127.992C368 119.505 364.629 111.366 358.627 105.365C352.626 99.3634 344.487 95.992 336 95.992V88C335.979 81.862 335.083 75.7584 333.34 69.873C334.171 69.1361 334.838 68.2322 335.296 67.2202C335.755 66.2082 335.994 65.1109 336 64C335.986 51.2738 330.925 39.0728 321.926 30.0741C312.927 21.0753 300.726 16.0138 288 16H254.625C250.473 16.1929 246.335 16.5998 242.225 17.219L242.235 17.266C231.524 19.4723 221.57 24.421 213.345 31.628C208.644 31.0733 203.878 31.5233 199.364 32.9484C194.85 34.3735 190.69 36.7411 187.16 39.8945C183.629 43.048 180.808 46.9153 178.885 51.2405C176.961 55.5657 175.978 60.2503 176 64.984V95.992C167.513 95.992 159.374 99.3634 153.373 105.365C147.371 111.366 144 119.505 144 127.992C144 136.479 147.371 144.618 153.373 150.619C159.374 156.621 167.513 159.992 176 159.992V160C176.018 170.606 178.15 181.102 182.271 190.875C186.392 200.648 192.419 209.501 200 216.918V249.359L117.641 264.781ZM256 240C270.053 239.988 283.853 236.26 296 229.193V250.237L256 263.57L216 250.237V229.189C228.146 236.259 241.946 239.989 256 240V240ZM312.242 329.938L319.203 357.812L293.263 386.636L277.985 387.584L309.863 265.235L330.263 269.062L348.88 314.062L318.427 320.156C317.366 320.368 316.358 320.793 315.466 321.406C314.574 322.019 313.816 322.807 313.238 323.721C312.659 324.636 312.272 325.659 312.1 326.727C311.929 327.796 311.976 328.888 312.239 329.938H312.242ZM385.891 376H424V399.483L348.4 394.746L385.891 376ZM182.877 400.445L204.624 401.801L201.373 445.353L177.227 440.1L182.877 400.445ZM198.758 323.719C198.179 322.805 197.421 322.018 196.529 321.406C195.637 320.793 194.631 320.368 193.57 320.156L163.117 314.062L181.734 269.062L202.134 265.235L234.011 387.578L218.719 386.62L192.8 357.812L199.761 329.938C200.023 328.887 200.07 327.795 199.897 326.726C199.725 325.657 199.337 324.634 198.758 323.719V323.719ZM228.784 304.024L232 301.451V316.368L228.784 304.024ZM248 377.625V288.65L256 282.25L264 288.65V377.625L261.158 388.625H250.843L248 377.625ZM280 301.451L283.216 304.024L280 316.368V301.451ZM287.633 287.062L272.484 274.935L292.536 268.259L287.633 287.062ZM224.367 287.062L219.467 268.262L239.519 274.938L224.367 287.062ZM120.586 280.508L162.968 272.57L144.609 316.938C144.157 318.03 143.952 319.209 144.01 320.39C144.067 321.57 144.386 322.724 144.942 323.767C145.499 324.809 146.28 325.716 147.229 326.421C148.178 327.126 149.271 327.612 150.43 327.844L182.2 334.2L176.239 358.059C175.92 359.33 175.918 360.659 176.234 361.931C176.551 363.202 177.175 364.376 178.052 365.349L195.942 385.226L178.122 384.114L160 375.055V352H144V367.055L131.578 360.844C130.467 360.289 129.242 360 128 360H88V319.844C87.9932 310.517 91.2463 301.48 97.1966 294.297C103.147 287.114 111.42 282.237 120.586 280.508ZM88 376H126.109L167.264 396.577L161.364 437.828L121.13 432.078C120.756 432.025 120.378 431.999 120 432H88V376ZM151.141 480H104C99.7582 479.994 95.6918 478.307 92.6924 475.308C89.6931 472.308 88.0056 468.242 88 464V448H119.43L200.171 461.457L200.023 463.438C199.879 465.435 200.492 467.414 201.74 468.98L151.141 480ZM424 464C423.994 468.242 422.307 472.308 419.308 475.308C416.308 478.307 412.242 479.994 408 480H360.625L216.492 457.242L220.585 402.795L424 415.516V464ZM424 319.844V360H384C382.758 360 381.533 360.289 380.422 360.844L368 367.055V352H352V375.055L333.876 384.116L316.061 385.222L333.945 365.352C334.822 364.379 335.446 363.205 335.763 361.934C336.079 360.662 336.077 359.333 335.758 358.062L329.8 334.2L361.573 327.841C362.732 327.609 363.825 327.123 364.774 326.418C365.723 325.713 366.504 324.806 367.061 323.764C367.617 322.721 367.936 321.567 367.993 320.387C368.051 319.206 367.846 318.027 367.394 316.935L349.03 272.567L391.406 280.5C400.573 282.23 408.848 287.109 414.8 294.293C420.752 301.477 424.006 310.515 424 319.844V319.844ZM317.315 72C319.107 77.1434 320.015 82.5533 320 88V95.273C315.438 87.7988 311.388 80.0232 307.88 72H317.315ZM352 127.992C351.994 132.234 350.307 136.3 347.308 139.3C344.308 142.299 340.242 143.986 336 143.992V111.992C340.242 111.998 344.308 113.685 347.308 116.684C350.307 119.684 351.994 123.75 352 127.992V127.992ZM299.312 56L312.167 43.146C312.22 43.208 312.267 43.277 312.318 43.339L303.141 52.773L312.375 43.411C315.499 47.0551 317.759 51.3589 318.984 56H299.312ZM298.8 33.891L276.688 56H256.65L275.85 32H288C291.682 32.0006 295.337 32.6405 298.8 33.891V33.891ZM255.35 32L236.15 56H224V43.477C232.501 36.1078 243.365 32.0352 254.616 32H255.35V32ZM192 64.984C192.004 60.5791 193.643 56.3325 196.599 53.0665C199.555 49.8006 203.617 47.7475 208 47.305V62.367C203.272 73.2499 197.93 83.8556 192 94.133V64.984ZM160 127.992C160.03 123.762 161.727 119.714 164.722 116.726C167.717 113.738 171.769 112.051 176 112.031V143.992C171.758 143.986 167.692 142.299 164.692 139.3C161.693 136.3 160.006 132.234 160 127.992V127.992ZM192 160V122.794C205.5 105.713 216.724 82.14 221.245 72H290.4C297.767 90.2363 307.737 107.309 320 122.686V160C320 176.974 313.257 193.253 301.255 205.255C289.252 217.257 272.974 224 256 224C239.026 224 222.747 217.257 210.745 205.255C198.743 193.253 192 176.974 192 160Z" fill="#616161"/>
<path d="M220 128C222.373 128 224.693 127.296 226.667 125.978C228.64 124.659 230.178 122.785 231.087 120.592C231.995 118.399 232.232 115.987 231.769 113.659C231.306 111.331 230.164 109.193 228.485 107.515C226.807 105.836 224.669 104.694 222.341 104.231C220.013 103.768 217.601 104.005 215.408 104.913C213.215 105.822 211.341 107.36 210.022 109.333C208.704 111.307 208 113.627 208 116C208.003 119.182 209.269 122.232 211.519 124.481C213.768 126.731 216.818 127.997 220 128Z" fill="#616161"/>
<path d="M292 128C294.373 128 296.693 127.296 298.667 125.978C300.64 124.659 302.178 122.785 303.087 120.592C303.995 118.399 304.232 115.987 303.769 113.659C303.306 111.331 302.164 109.193 300.485 107.515C298.807 105.836 296.669 104.694 294.341 104.231C292.013 103.768 289.601 104.005 287.408 104.913C285.215 105.822 283.341 107.36 282.022 109.333C280.704 111.307 280 113.627 280 116C280.003 119.182 281.269 122.232 283.519 124.481C285.768 126.731 288.818 127.997 292 128Z" fill="#616161"/>
<path d="M232 176H246.891C260.797 176 273.984 172.773 284.031 166.906L275.969 153.094C268.445 157.484 257.844 160 246.891 160H232V176Z" fill="#616161"/>
<path d="M256 432H240V448H256V432Z" fill="#616161"/>
<path d="M288 432H272V448H288V432Z" fill="#616161"/>
</svg>
