<svg width="512" height="512" viewBox="0 0 512 512" fill="none" xmlns="http://www.w3.org/2000/svg">
<path d="M408.134 347.844H427.52C431.662 347.844 435.02 344.486 435.02 340.344C435.02 336.202 431.662 332.844 427.52 332.844H408.134C403.992 332.844 400.634 336.202 400.634 340.344C400.634 344.486 403.992 347.844 408.134 347.844Z" fill="#616161"/>
<path d="M65.0241 347.763H139.024C143.166 347.763 146.524 344.405 146.524 340.263C146.524 336.121 143.166 332.763 139.024 332.763H65.0241C60.8821 332.763 57.524 336.121 57.524 340.263C57.524 344.405 60.8821 347.763 65.0241 347.763Z" fill="#616161"/>
<path d="M490.771 361.316H469.5V344.179C469.5 315.409 452.518 289.259 426.235 277.556C418.672 274.189 408.975 271.242 398.611 268.707C398.669 115.435 398.656 95.21 398.656 94.712C398.701 42.421 356.397 0.072998 304.099 0.072998H277.695H277.384C277.318 0.072998 277.252 0.0779981 277.186 0.0789981C225.306 0.350998 183.093 42.425 183.138 94.707C183.138 108.418 183.162 193.185 183.164 197.391C183.165 201.533 186.522 204.889 190.664 204.889H190.666C194.808 204.888 198.165 201.529 198.164 197.387L198.155 160.953C200.132 161.562 202.23 161.893 204.405 161.893H210.149C213.508 180.587 223.976 197.895 240.453 211.616C241.937 212.851 243.439 214.012 244.948 215.139V252.74C244.948 255.719 242.717 258.254 239.758 258.637C228.884 260.048 213.56 262.293 198.182 265.386L198.174 232.447C198.173 228.305 194.816 224.949 190.674 224.949C190.674 224.949 190.673 224.949 190.672 224.949C186.53 224.95 183.173 228.309 183.174 232.451L183.183 268.706C172.818 271.241 163.121 274.188 155.559 277.555C143.24 283.041 132.836 291.705 125.228 302.737H40.64C29.67 302.737 20.745 311.661 20.745 322.631V361.339C9.264 361.601 0 371.002 0 382.544V396.112C0 405.182 5.729 412.92 13.75 415.954V491.433C13.75 502.733 22.944 511.927 34.244 511.927H477.756C489.056 511.927 498.25 502.733 498.25 491.433V469.23C498.25 465.088 494.892 461.73 490.75 461.73C486.608 461.73 483.25 465.088 483.25 469.23V491.433C483.25 494.462 480.785 496.927 477.756 496.927H34.244C31.215 496.927 28.75 494.462 28.75 491.433V417.34H483.25V434.167C483.25 438.309 486.608 441.667 490.75 441.667C494.892 441.667 498.25 438.309 498.25 434.167V415.954C506.271 412.92 512 405.182 512 396.112V382.544C512 370.839 502.477 361.316 490.771 361.316V361.316ZM454.5 344.179V361.316H381.176V280.211C395.604 283.126 410.194 286.834 420.134 291.259C441.011 300.555 454.5 321.327 454.5 344.179ZM215.682 361.316V312.013C237.227 328.423 263.395 337.313 290.929 337.313C318.463 337.313 344.632 328.423 366.177 312.014V361.317H215.682V361.316ZM342.036 258.639C339.077 258.255 336.846 255.72 336.846 252.741V215.14C338.355 214.013 339.858 212.853 341.341 211.617C357.822 197.894 368.291 180.582 371.647 161.894H377.389C379.564 161.894 381.662 161.563 383.639 160.954L383.612 265.388C368.234 262.293 352.91 260.05 342.036 258.639V258.639ZM377.409 118.108C380.804 118.113 383.568 120.837 383.649 124.214L383.645 140.861C383.52 144.207 380.766 146.893 377.39 146.893H372.827L372.899 118.108H377.409ZM383.656 94.703L383.654 103.108C376.835 103.108 331.769 103.108 325.497 103.108C259.858 103.108 237.963 15.582 277.262 15.083C277.407 15.082 277.55 15.073 277.695 15.073H304.099C348.091 15.073 383.695 50.692 383.656 94.703V94.703ZM245.38 21.91C240.186 34.78 243.67 53.514 248.828 66.289V69.76C248.828 80.03 240.473 88.385 230.203 88.385C220.722 88.385 212.692 94.514 209.876 103.107H204.395C202.219 103.107 200.119 103.439 198.141 104.049L198.139 94.698C198.11 62.23 217.487 34.317 245.38 21.91V21.91ZM198.151 140.86L198.147 124.215C198.228 120.834 200.997 118.108 204.396 118.108H208.835L208.965 146.894H204.406C201.029 146.894 198.275 144.207 198.151 140.86ZM223.973 148.651L223.797 109.821C223.781 106.269 226.651 103.385 230.203 103.385C243.019 103.385 254.18 96.176 259.852 85.601C274.972 105.343 298.766 118.107 325.496 118.107H357.898L357.821 148.684C357.821 173.897 342.601 192.868 325.853 204.674C325.75 204.728 307.125 218.314 290.897 218.771C275.048 218.325 256.058 204.736 255.955 204.681C239.201 192.873 223.973 173.89 223.973 148.651V148.651ZM241.689 273.514C252.099 272.163 259.949 263.233 259.949 252.741V224.542C271.733 230.632 282.932 233.606 290.737 233.773C290.791 233.774 290.844 233.774 290.898 233.774C290.952 233.774 291.005 233.774 291.059 233.773C298.864 233.606 310.063 230.632 321.847 224.542V252.741C321.847 263.233 329.697 272.163 340.107 273.513C346.267 274.313 355.68 275.63 366.178 277.425V292.357C345.755 311.696 319.156 322.312 290.93 322.312C262.705 322.312 236.106 311.696 215.683 292.357V277.415C226.154 275.625 235.542 274.312 241.689 273.514V273.514ZM161.66 291.259C171.616 286.827 186.234 283.115 200.682 280.198V361.316H182.636V322.632C182.636 311.662 173.711 302.738 162.741 302.738H144.744C149.62 297.971 155.319 294.083 161.66 291.259ZM40.64 317.738H129.265C129.27 317.738 129.275 317.739 129.28 317.739C129.285 317.739 129.29 317.738 129.295 317.738H162.741C165.44 317.738 167.636 319.933 167.636 322.632V361.316H35.745V322.632C35.745 319.934 37.941 317.738 40.64 317.738ZM15 382.544C15 379.109 17.794 376.315 21.229 376.315H490.772C494.207 376.315 497.001 379.109 497.001 382.544V396.112C497.001 399.546 494.207 402.34 490.772 402.34H21.229C17.794 402.34 15 399.546 15 396.112V382.544Z" fill="#616161"/>
</svg>
